<svg width="36" height="37" viewBox="0 0 36 37" fill="none" xmlns="http://www.w3.org/2000/svg">
<path d="M3.49806 13.2206C6.11406 14.7926 12.5761 16.9826 12.5761 16.9826C12.5761 16.9826 16.9921 18.6866 20.8141 19.4786C24.6301 20.2706 25.4761 17.5886 25.4761 17.5886C25.4761 17.5886 27.0481 18.6326 29.5741 18.6146C32.1001 18.5906 33.0841 18.5246 33.6781 19.1366C34.2721 19.7486 34.6261 20.6186 34.1461 21.6386C33.6661 22.6586 28.3681 24.8726 23.6581 24.6446C18.9481 24.4166 16.1041 23.0306 10.7341 22.5746C5.67006 22.1426 2.83806 21.9146 2.65806 21.6626C2.47806 21.4106 2.02206 19.9826 2.20206 17.1566C2.38206 14.3306 3.31806 12.9266 3.49806 13.2206Z" stroke="#292929" stroke-width="0.8" stroke-miterlimit="10" stroke-linecap="round" stroke-linejoin="round"/>
<path d="M2.65808 21.6626V23.9366H11.4661L11.4421 22.7486" stroke="#292929" stroke-width="0.5" stroke-miterlimit="10" stroke-linecap="round" stroke-linejoin="round"/>
<path d="M2.7301 14.3427C2.8021 14.3787 2.8801 14.4147 2.9701 14.4567" stroke="#292929" stroke-width="0.4" stroke-miterlimit="10" stroke-linecap="round"/>
<path d="M4.0741 14.9426C7.0921 16.2266 12.8521 18.4526 14.6161 18.9686C17.8981 19.9346 21.2281 21.0686 22.9081 20.8406C24.2941 20.6546 25.3441 19.9586 26.0761 18.8426" stroke="#292929" stroke-width="0.4" stroke-miterlimit="10" stroke-linecap="round" stroke-dasharray="0.87 0.87"/>
<path d="M26.3881 18.3207C26.4301 18.2427 26.4661 18.1647 26.5021 18.0807" stroke="#292929" stroke-width="0.4" stroke-miterlimit="10" stroke-linecap="round"/>
</svg>
