<svg width="36" height="37" viewBox="0 0 36 37" fill="none" xmlns="http://www.w3.org/2000/svg">
<path d="M3.15605 13.6285C3.66005 13.0885 6.64205 16.3345 9.89405 16.1005C13.1461 15.8665 15.2401 11.8885 16.5241 11.9965C18.1801 12.1345 22.3921 17.3845 25.9021 17.8225C29.4121 18.2605 33.7801 18.3325 34.1161 20.6425C34.2421 21.5065 26.0641 24.3505 20.5381 23.7805C15.5701 23.2705 13.8481 22.7365 10.7461 22.6165C7.64405 22.4965 3.49205 23.1205 2.88005 21.8485C2.26805 20.5765 1.95005 19.7425 2.14205 17.8285C2.33405 15.9145 2.77205 14.0005 3.15605 13.6285Z" stroke="#292929" stroke-width="0.8" stroke-miterlimit="10"/>
<path d="M2.88 21.8486L2.91 25.1666H10.962V23.8586C10.962 23.8586 12.444 23.8946 18.108 24.7286C27.78 26.1506 34.446 22.0106 34.446 22.0106V20.6006L33.348 21.3266" stroke="#292929" stroke-width="0.8" stroke-miterlimit="10" stroke-linecap="round" stroke-linejoin="round"/>
<path d="M12.3 22.7246C12.3 22.7246 14.988 18.4166 21.774 19.1426C22.05 16.7306 22.062 15.9926 22.062 15.9926" stroke="#292929" stroke-width="0.4" stroke-miterlimit="10" stroke-linecap="round"/>
<path d="M16.656 14.2346L17.7 12.7406" stroke="#292929" stroke-width="0.8" stroke-miterlimit="10" stroke-linecap="round"/>
<path d="M18.4081 15.6085L19.4521 14.1145" stroke="#292929" stroke-width="0.8" stroke-miterlimit="10" stroke-linecap="round"/>
<path d="M20.0701 16.9286L21.1141 15.4406" stroke="#292929" stroke-width="0.8" stroke-miterlimit="10" stroke-linecap="round"/>
<path d="M28.572 18.1465C25.74 20.6005 25.842 23.4685 25.842 23.4685" stroke="#292929" stroke-width="0.4" stroke-miterlimit="10"/>
<path d="M10.7521 22.2685C10.7521 22.2685 13.0981 19.0225 15.8821 18.2905C18.6661 17.5585 21.7441 17.5525 21.7441 17.5525" stroke="#292929" stroke-width="0.4" stroke-miterlimit="10" stroke-linecap="round" stroke-dasharray="0.88 0.88"/>
</svg>
