<svg width="36" height="37" viewBox="0 0 36 37" fill="none" xmlns="http://www.w3.org/2000/svg">
<path d="M34.464 20.0306C32.646 20.3546 31.092 20.5166 29.346 20.6786C28.386 20.7686 28.068 20.6786 28.068 20.6786" stroke="#292929" stroke-width="0.8" stroke-miterlimit="10" stroke-linecap="round" stroke-linejoin="round"/>
<path d="M34.464 20.0306C34.464 20.0306 34.92 21.0686 34.236 21.6686C30.102 25.1606 22.416 23.3006 20.862 23.0966C19.308 22.8926 17.544 22.9346 16.854 23.0306C16.164 23.1266 10.458 23.8586 6.38398 23.4746C4.96798 23.3486 4.13398 23.4146 2.54398 23.0306C1.99198 22.8986 1.82398 21.5366 1.97398 20.4506C2.58598 20.3906 4.75198 20.6006 6.46198 20.5586C8.17198 20.5166 13.65 20.0366 14.532 20.0366C15.414 20.0366 17.388 20.1626 17.388 20.1626" stroke="#292929" stroke-width="0.8" stroke-miterlimit="10" stroke-linecap="round" stroke-linejoin="round"/>
<path d="M15.006 23.0427C15.006 23.0427 20.262 16.8147 22.554 12.9987C22.554 12.9987 27.774 16.2087 28.236 16.8207C28.674 19.5087 27.36 23.6787 27.36 23.6787" stroke="#292929" stroke-width="0.8" stroke-miterlimit="10" stroke-linecap="round" stroke-linejoin="round"/>
<path d="M16.854 23.0307C16.854 23.0307 19.494 19.8687 20.58 18.3327C21.66 16.7967 23.802 13.7727 23.802 13.7727" stroke="#292929" stroke-width="0.4" stroke-miterlimit="10" stroke-linecap="round" stroke-dasharray="0.88 0.88"/>
<path d="M26.982 16.1666C26.982 16.1666 27.162 17.4626 26.838 20.0306C26.508 22.5986 25.764 23.6726 25.764 23.6726" stroke="#292929" stroke-width="0.4" stroke-miterlimit="10" stroke-linecap="round" stroke-dasharray="0.88 0.88"/>
</svg>
