<svg width="36" height="37" viewBox="0 0 36 37" fill="none" xmlns="http://www.w3.org/2000/svg">
<g clip-path="url(#clip0_883_1608)">
<path d="M5.84995 18.6086C5.31595 19.9886 4.50595 21.5966 3.94195 24.1106C3.38395 26.6306 3.90595 27.1466 4.30795 27.5966C5.15995 28.5506 10.4879 28.7186 12.5819 29.9306C15.3779 31.5506 17.1239 33.8666 20.2079 34.5146C23.2919 35.1626 27.1379 33.9686 28.908 33.2126C30.792 32.4026 32.256 31.8566 32.454 30.8006C32.658 29.7446 31.686 28.7726 29.616 28.5326C27.546 28.2866 25.6019 28.8146 24.7499 28.4486C23.8979 28.0826 21.3839 26.2166 20.1659 24.0266C18.9479 21.8366 18.8399 18.5546 18.9479 14.6606C19.0559 10.7666 19.4759 2.98462 19.4759 2.98462C19.4759 2.98462 16.7339 1.44262 13.9199 1.80862C10.1879 2.29462 7.39195 2.73862 5.03995 3.06862C4.67395 5.90662 5.48395 7.44862 5.96995 10.1246C6.45595 12.8006 6.38395 17.2346 5.84995 18.6086Z" stroke="#292929" stroke-width="0.8" stroke-miterlimit="10"/>
<path d="M10.0319 29.0066L9.61793 35.4626C9.61793 35.4626 5.00393 35.9546 4.49393 35.2646C3.98393 34.5746 3.73193 26.4746 3.73193 26.4746" stroke="#292929" stroke-width="0.8" stroke-miterlimit="10"/>
<path d="M9.93591 30.5606C9.93591 30.5606 11.3939 30.7346 12.3359 31.3946C13.2779 32.0486 17.3819 35.1086 19.0079 35.6366C20.6339 36.1646 23.3099 36.2546 25.2119 35.8346C28.8179 35.0426 32.0999 33.1526 32.4779 32.5706C33.1619 31.5146 32.4539 30.8066 32.4539 30.8066" stroke="#292929" stroke-width="0.8" stroke-miterlimit="10"/>
<path d="M12.4559 2.00665C12.4559 2.00665 13.6139 22.4727 14.2199 25.6347C14.8259 28.7967 16.3259 32.6247 16.3259 32.6247" stroke="#292929" stroke-width="0.4" stroke-miterlimit="10" stroke-linejoin="round"/>
<path d="M11.604 2.00665C11.604 2.00665 12.762 22.4727 13.368 25.6347C13.974 28.7967 15.204 31.8987 15.204 31.8987" stroke="#292929" stroke-width="0.4" stroke-miterlimit="10" stroke-linecap="round" stroke-linejoin="round" stroke-dasharray="0.79 0.79"/>
<path d="M5.96399 18.2307C8.26199 19.0047 12.408 24.4887 13.794 25.2867C16.41 26.7927 18.054 26.8527 19.026 26.1807C19.998 25.5087 19.644 22.8507 19.644 22.8507" stroke="#292929" stroke-width="0.4" stroke-miterlimit="10" stroke-linejoin="round"/>
<path d="M5.37598 7.50865C7.52998 7.50865 10.752 6.64465 13.542 6.64465C16.332 6.64465 19.248 7.50865 19.248 7.50865" stroke="#292929" stroke-width="0.4" stroke-miterlimit="10" stroke-linejoin="round"/>
</g>
<defs>
<clipPath id="clip0_883_1608">
<rect width="36" height="36" fill="white" transform="translate(0 0.938599)"/>
</clipPath>
</defs>
</svg>
