<svg width="36" height="37" viewBox="0 0 36 37" fill="none" xmlns="http://www.w3.org/2000/svg">
<path d="M22.872 20.4566C27.0042 20.4566 30.354 17.1068 30.354 12.9746C30.354 8.84242 27.0042 5.49261 22.872 5.49261C18.7398 5.49261 15.39 8.84242 15.39 12.9746C15.39 17.1068 18.7398 20.4566 22.872 20.4566Z" stroke="#292929" stroke-width="0.8" stroke-miterlimit="10" stroke-linecap="round"/>
<path d="M18.7261 11.0066C18.7261 9.74059 19.4401 8.89459 20.4841 8.89459C21.5221 8.89459 22.2421 9.72859 22.2421 11.0066C22.2421 12.2846 21.5161 13.1186 20.4841 13.1186C19.4401 13.1246 18.7261 12.2786 18.7261 11.0066ZM21.6841 11.0066C21.6841 9.99259 21.2041 9.39259 20.4841 9.39259C19.7521 9.39259 19.2841 10.0046 19.2841 11.0066C19.2841 12.0086 19.7521 12.6206 20.4841 12.6206C21.2101 12.6206 21.6841 12.0206 21.6841 11.0066ZM25.2001 8.94859H25.8541L20.5321 16.7366H19.8781L25.2001 8.94859ZM23.5021 14.6786C23.5021 13.4126 24.2281 12.5666 25.2601 12.5666C26.3041 12.5666 27.0181 13.4126 27.0181 14.6786C27.0181 15.9446 26.3041 16.7906 25.2601 16.7906C24.2221 16.7966 23.5021 15.9506 23.5021 14.6786ZM26.4601 14.6786C26.4601 13.6766 25.9921 13.0646 25.2601 13.0646C24.5341 13.0646 24.0601 13.6646 24.0601 14.6786C24.0601 15.6926 24.5401 16.2926 25.2601 16.2926C25.9921 16.2926 26.4601 15.6806 26.4601 14.6786Z" fill="#292929"/>
<path d="M5.67606 13.6106C4.99206 13.8866 2.20806 17.7986 3.48006 21.5306C3.73206 23.0246 10.7401 24.2006 13.7761 26.9366C16.8121 29.6726 16.2061 29.8346 18.0241 31.2446C19.8421 32.6546 25.0921 32.0366 27.5041 31.4006C29.9161 30.7646 32.4121 29.8586 33.3661 28.8566C34.3201 27.8546 33.5341 26.2166 31.4161 25.3946C29.2981 24.5726 26.3641 23.5766 26.3641 23.5766C26.3641 23.5766 23.7241 25.8986 21.2221 25.4426C18.7201 24.9866 15.2581 21.4886 12.1201 18.8906C8.98206 16.2926 6.36006 13.3346 5.67606 13.6106Z" stroke="#292929" stroke-width="0.8" stroke-miterlimit="10"/>
<path d="M9.9901 24.4886L9.1261 30.9866C9.1261 30.9866 4.2721 31.4966 3.7381 30.4946C3.2041 29.4986 3.2041 20.2106 3.2041 20.2106" stroke="#292929" stroke-width="0.8" stroke-miterlimit="10"/>
<path d="M3.74402 28.9526H9.39602" stroke="#292929" stroke-width="0.8" stroke-miterlimit="10"/>
</svg>
