<svg width="36" height="37" viewBox="0 0 36 37" fill="none" xmlns="http://www.w3.org/2000/svg">
<path d="M22.8301 18.9266C22.8301 18.9266 23.9401 19.3706 27.7141 19.1846C31.4881 19.0046 31.9861 18.2786 31.9861 18.2786C31.9861 18.2786 33.2941 18.5246 32.8681 19.5746C32.5381 20.3846 28.5301 22.7066 25.0621 22.6046C21.6001 22.5026 17.3461 21.4946 14.7001 21.2726C12.0541 21.0506 3.79806 20.9726 3.16206 20.3546C2.52606 19.7366 2.44806 18.9206 2.66406 17.3666C2.88006 15.8126 3.73806 14.2766 3.73806 14.2766C3.73806 14.2766 6.76206 16.0466 11.5321 16.9766C16.3021 17.9066 18.1561 18.2186 18.1561 18.2186" stroke="#292929" stroke-width="0.8" stroke-miterlimit="10" stroke-linecap="round" stroke-linejoin="round"/>
<path d="M20.2801 12.4526L17.7421 19.7366L22.4461 20.2946C22.4461 20.2946 23.1601 17.8586 23.3281 16.8506C23.4961 15.8426 23.4661 14.9306 23.4661 14.9306L20.2801 12.4526Z" stroke="#292929" stroke-width="0.8" stroke-miterlimit="10" stroke-linecap="round" stroke-linejoin="round"/>
<path d="M23.6161 15.5306C23.6161 15.5306 25.1821 16.5386 26.5141 16.8086C27.8461 17.0786 31.0741 17.4026 31.0741 17.4026" stroke="#292929" stroke-width="0.8" stroke-miterlimit="10" stroke-linecap="round" stroke-linejoin="round"/>
<path d="M19.842 12.5786L18.108 11.1626C18.108 11.1626 16.164 13.5806 16.788 14.9006C17.412 16.2206 18.438 17.0966 18.438 17.0966" stroke="#292929" stroke-width="0.8" stroke-miterlimit="10" stroke-linecap="round" stroke-linejoin="round"/>
<path d="M18.438 17.0906C18.438 17.0906 12.252 15.9746 9.09002 14.9486C5.92802 13.9226 4.80602 13.0106 4.13402 13.2866C3.46202 13.5626 3.73802 14.2826 3.73802 14.2826" stroke="#292929" stroke-width="0.8" stroke-miterlimit="10" stroke-linecap="round" stroke-linejoin="round"/>
<path d="M23.2201 17.7026C23.2201 17.7026 26.7901 18.1586 28.5541 17.8406C30.3181 17.5286 31.0441 17.4266 31.5601 17.2946C32.0761 17.1626 32.4421 17.8226 32.1181 18.2306" stroke="#292929" stroke-width="0.8" stroke-miterlimit="10" stroke-linecap="round" stroke-linejoin="round"/>
<path d="M2.62207 20.4445L2.82607 26.0185C2.82607 26.0185 3.91207 26.4565 7.26607 26.6545C10.6201 26.8525 12.0241 26.1385 12.0241 26.1385L11.9521 24.1825C11.9521 24.1825 14.0881 24.3985 15.5641 24.5305C17.0401 24.6565 18.9781 25.0645 18.9781 25.0645L19.0201 26.2945C19.0201 26.2945 22.9081 26.8345 27.2041 26.5465C31.5001 26.2525 33.9781 23.0425 33.9781 23.0425C33.9781 23.0425 33.9121 21.2905 33.7501 20.5465C33.5881 19.8025 32.8621 19.5865 32.8621 19.5865" stroke="#292929" stroke-width="0.8" stroke-miterlimit="10" stroke-linecap="round" stroke-linejoin="round"/>
<path d="M2.65808 21.4466C2.65808 21.4466 3.28808 21.9986 7.42208 22.1606C11.5561 22.3226 12.8281 22.0826 15.5881 22.4786C18.3481 22.8746 22.7881 23.8106 25.8121 23.7026C28.8361 23.5946 30.9541 22.5146 31.9681 22.0346C32.9821 21.5546 33.5161 20.6906 33.5161 20.6906" stroke="#292929" stroke-width="0.4" stroke-miterlimit="10" stroke-linecap="round" stroke-linejoin="round"/>
</svg>
