<svg width="36" height="37" viewBox="0 0 36 37" fill="none" xmlns="http://www.w3.org/2000/svg">
<path d="M27.732 22.9166C27.732 22.9166 29.1 22.8806 30.6 22.4246C32.1 21.9626 34.8 20.9066 34.8 20.9066V21.9986C34.8 21.9986 32.376 23.5706 29.892 24.2846C28.356 24.7226 26.304 25.0046 23.604 25.0046C20.904 25.0046 14.592 24.0506 12.75 24.1826C10.908 24.3146 4.58998 24.7586 2.20198 23.5646C1.42198 23.1746 1.89598 20.3246 2.06398 20.1506C2.23198 19.9766 4.07998 20.5286 6.53398 20.3906" stroke="#292929" stroke-width="0.8" stroke-miterlimit="10" stroke-linecap="round" stroke-linejoin="round"/>
<path d="M8.09396 14.9066C6.94196 13.8206 5.60396 13.2566 4.07996 12.8486C4.11596 13.4546 4.15796 14.0606 4.19396 14.6666C4.27196 15.3446 4.27196 15.8726 4.27196 16.5746C6.91796 18.1646 7.09196 21.5126 7.59596 24.3746" stroke="#292929" stroke-width="0.8" stroke-miterlimit="10" stroke-linecap="round" stroke-linejoin="round"/>
<path d="M11.5919 24.2546C11.1299 21.8246 10.6319 19.5386 9.69592 17.2466" stroke="#292929" stroke-width="0.8" stroke-miterlimit="10" stroke-linecap="round" stroke-linejoin="round"/>
<path d="M27.468 24.7647C27.468 24.7647 28.242 20.6607 28.038 19.5027C26.946 18.7887 25.104 18.0327 23.262 17.2527C21.894 20.1267 18.042 24.3747 18.042 24.3747" stroke="#292929" stroke-width="0.8" stroke-miterlimit="10" stroke-linecap="round" stroke-linejoin="round"/>
<path d="M15.762 12.8486L16.512 15.4106C16.512 15.4106 10.59 17.0726 9.71999 17.2526C8.59199 17.4926 7.53599 17.6966 7.15799 16.7066C6.77999 15.7166 7.92599 14.9846 8.77199 14.7566C9.62399 14.5226 15.762 12.8486 15.762 12.8486Z" stroke="#292929" stroke-width="0.8" stroke-miterlimit="10" stroke-linecap="round" stroke-linejoin="round"/>
<path d="M10.74 20.5287C10.74 20.5287 13.776 21.0207 15.756 21.7887C17.736 22.5567 19.242 22.7487 19.242 22.7487" stroke="#292929" stroke-width="0.8" stroke-miterlimit="10"/>
<path d="M4.14001 13.7546C5.22001 14.0306 7.47001 15.4826 7.47001 15.4826" stroke="#292929" stroke-width="0.4" stroke-miterlimit="10" stroke-linecap="round"/>
</svg>
