<svg width="52" height="14" viewBox="0 0 52 14" fill="none" xmlns="http://www.w3.org/2000/svg">
<path d="M7.76478 7.85522H4.81747V10.5295H7.76478V7.85522Z" fill="#A70584"/>
<path d="M7.75294 4.22644H4.80563V6.92318H7.75294V4.22644Z" fill="#36B588"/>
<path d="M3.82328 7.82153H0.875977V10.5183H3.82328V7.82153Z" fill="#FAD05B"/>
<path d="M16.5521 4.05693C16.5521 5.91768 14.9163 7.40988 12.809 7.40988H11.2027V10.4842H8.75644V0.703979H12.8041C14.9163 0.703979 16.5521 2.20067 16.5521 4.05693ZM14.1107 4.05693C14.1107 3.34229 13.5605 2.79845 12.8139 2.79845H11.2076V5.31541H12.8139C13.5605 5.31541 14.1107 4.77156 14.1107 4.05693Z" fill="#292929"/>
<path d="M25.0797 3.31078V10.4841H22.7268V9.80992C22.211 10.3538 21.4398 10.6864 20.3886 10.6864C18.3353 10.6864 16.6406 9.03686 16.6406 6.89744C16.6406 4.75803 18.3353 3.10852 20.3886 3.10852C21.4398 3.10852 22.2061 3.43662 22.7268 3.98496V3.31078H25.0797ZM22.7268 6.89744C22.7268 5.82324 21.9408 5.14456 20.8601 5.14456C19.7795 5.14456 18.9935 5.81875 18.9935 6.89744C18.9935 7.97614 19.7795 8.65032 20.8601 8.65032C21.9408 8.64583 22.7268 7.97164 22.7268 6.89744Z" fill="#292929"/>
<path d="M34.0149 3.31079L31.3525 10.2234C30.4781 12.4887 29.0929 13.3876 26.9119 13.2887V11.2931C28.0024 11.2931 28.5182 10.9785 28.8571 10.1111L25.7625 3.31079H28.3315L30.0606 7.67052L31.5244 3.31079H34.0149Z" fill="#292929"/>
<path d="M42.724 4.05693C42.724 5.91768 41.0883 7.40988 38.9809 7.40988H37.3747V10.4842H34.9284V0.703979H38.976C41.0883 0.703979 42.724 2.20067 42.724 4.05693ZM40.2827 4.05693C40.2827 3.34229 39.7325 2.79845 38.9859 2.79845H37.3796V5.31541H38.9859C39.7325 5.31541 40.2827 4.77156 40.2827 4.05693Z" fill="#292929"/>
<path d="M43.0287 6.99644C43.0287 4.91545 44.8315 3.3064 47.0764 3.3064C49.3212 3.3064 51.124 4.91545 51.124 6.99644C51.124 9.07742 49.3212 10.6865 47.0764 10.6865C44.8315 10.6865 43.0287 9.07742 43.0287 6.99644ZM48.8349 6.99644C48.8349 6.00314 48.0686 5.34693 47.0764 5.34693C46.0841 5.34693 45.3178 6.00314 45.3178 6.99644C45.3178 7.98974 46.0841 8.64594 47.0764 8.64594C48.0686 8.64594 48.8349 7.98974 48.8349 6.99644Z" fill="#292929"/>
</svg>
